<svg xmlns="http://www.w3.org/2000/svg" viewBox="0 0 137.9 28.8"><path d="M14.7.3l-.4 4.1h-3.4l-.8 7.4h2.7l-.4 4.2H9.7l-.8 8.1h3.6l-.5 4.3H5.7L8.6.3h6.1zm3.5 0l.8 15.4L20.6.3H23l-2.9 28.1h-2.2L17 12.1l-1.7 16.3h-2.4L15.8.3h2.4zM31 .3l-.4 4.1h-2.2l-2.5 24h-2.7l2.5-24h-2.3l.4-4.1H31zm6.9 0l-.4 4.1h-3.4l-.8 7.4H36l-.4 4.2h-2.7l-.9 8.1h3.6l-.4 4.3h-6.3L31.8.3h6.1zm.8 28.1H36L38.9.3H43c2 0 2.9 1.4 2.6 4.4l-.5 5c-.2 2.2-.9 3.1-1.6 3.6.4.4 1.1 1.1.9 3.3l-1 9.5v2.4h-2.7v-2.4l.9-8.3c.2-1.5 0-1.9-.8-1.9H40l-1.3 12.5zm1.7-16.6h.8c.8 0 1-.7 1.1-1.9l.4-4c.1-1.2 0-1.8-.8-1.8h-.7l-.8 7.7zM56.4.3L56 4.4h-2.2l-2.5 24h-2.7l2.5-24h-2.3l.4-4.1h7.2zm.6 28.1h-2.7L57.2.3H60l-1.2 11.3h1.8L61.8.3h2.7l-2.9 28.1h-2.7L60.1 16h-1.8L57 28.4zM71.8.3l-.4 4.1H68l-.8 7.4h2.7l-.5 4.2h-2.7l-.8 8.1h3.6l-.5 4.3h-6.3L65.6.3h6.2zm5.3 22.8h-2l-.9 5.3h-2.5L76.8.3H80l-.6 28.1h-2.6l.3-5.3zm.1-4.2l.4-10.6-1.8 10.6h1.4zm5.6 9.5H80L83 .3h4.1c2 0 2.9 1.4 2.6 4.4l-.5 5c-.2 2.2-.9 3.1-1.6 3.6.4.4 1.1 1.1.9 3.3l-1 9.5v2.4h-2.7v-2.4l.9-8.3c.2-1.5 0-1.9-.8-1.9H84l-1.4 12.5zm1.7-16.6h.8c.8 0 1-.7 1.1-1.9l.4-4c.1-1.2 0-1.8-.8-1.8h-.7l-.8 7.7zm9.4 4.3h2.7l-.6 6.7c-.3 2.9-1 5.9-3.6 5.9h-.6c-2.7 0-3.3-3-3-6l1.8-17.1c.2-2.8 1-5.6 3.4-5.6h.6c3 0 3.3 3.2 3 6l-.5 4.8h-2.7l.6-4.9c.1-1.2-.1-1.9-.8-1.9-.7 0-.9.6-1 1.9l-1.7 16.8c-.1 1.1 0 1.9.7 1.9s.9-.7 1-1.9l.7-6.6zm5.2 12.3h-2.7L99.3.3h2.7l-1.2 11.3h1.8L103.8.3h2.7l-2.9 28.1h-2.7l1.3-12.4h-1.8l-1.3 12.4zm8.4 0h-2.7L107.7.3h2.7l-2.9 28.1zM111 .3h2.7l-.6 19.1L116.2.3h2.6l-5 28.1h-3.3L111 .3zm14.5 0l-.4 4.1h-3.4l-.8 7.4h2.7l-.4 4.3h-2.7l-.8 8.1h3.6l-.4 4.3h-6.3L119.5.4h6zm1.5 28.4c-2.3 0-3.5-2-3.1-5.5l.6-5.8h2.7l-.5 5.3c-.1 1.3.1 1.9.8 1.9s.9-.8 1-2.5l.1-.7c.3-2.4 0-3.3-.8-5.7l-.7-2.1a15 15 0 0 1-1.2-7.5l.1-.9c.4-3.6 1.5-5.1 3.5-5.1h.6c2.2 0 3.2 1.6 2.9 4.7l-.5 4.6h-2.6l.4-3.8c.1-1.2 0-1.7-.6-1.7s-.8.6-.9 1.6l-.1.7c-.1 1.5.1 2.3.8 4.5l.7 2.2c1.1 3.6 1.8 5.2 1.5 8.7l-.1 1c-.4 4.3-1.7 6.3-3.9 6.3h-.7z" fill="#fff"/></svg>
