<svg viewBox="0 0 895 384" xmlns="http://www.w3.org/2000/svg"><path d="M62.5 377c-30 0-45.2-26.7-40.4-72l7.8-75.5H65l-7.1 69c-1.6 16.8 1.6 25.1 10.3 25.1s11.4-9.8 13.6-32l1-9.3c3.6-31 .7-43.4-10.7-75l-9.7-27.1C49.6 144.6 42.8 119.5 47 82l1.3-12.3c4.9-47.3 19.4-67 45.6-67h8.4c28.4 0 41.7 20.2 37.5 61.6l-6.2 59.6H99.1l5.1-49.8c1.6-15.3-.3-22.1-8.4-22.1s-10.3 7.8-11.6 20.2l-1 9.3c-1.6 19.8 1 29.6 10.3 58.2l9.4 28.6c14.6 46.4 23.3 67.6 19.1 114l-1.3 12.7c-5.5 55.8-22.3 82-50.7 82zm96.7-4h-35.6L161.8 6h35.5l-15.2 147H206L221.2 6h35.6l-38.2 367h-35.5l16.8-161.2H176zm158-370.4c34.6 0 47.5 33 42.3 84.4l-21 203.6c-5.2 50.3-17.1 86.8-49.4 86.8h-6.2c-33.6 0-46.8-35.5-41.6-86.8l21-203.6c5.1-51.3 16.4-84.3 48.7-84.3zM298.8 84L277 294c-2.2 17.3.3 29.2 10.4 29.2s12.2-11.4 14.5-29.1L323.7 84c2.2-19.7-2-28.1-10.7-28.1s-12 8.9-14.2 28.1zm96 137l-15.6 152h-35.5L381.8 6h52.4c25.8 0 38.1 19.3 34 60.7L459 155c-4.2 42-15.9 66-40.4 66zm5.4-53.7h9.7c10.7 0 12.3-8.8 14.6-27l6.1-59.8c1.3-13.8.7-25.1-10.6-25.1h-7.8zM522 2.6l13.5 261L568 2.6h41.8l-50 371H518l-15.7-277.8L474.3 374h-42.1L483 2.6zm162-0c34.6 0 47.5 33 42.3 84.4l-21 203.6c-5.2 50.3-17.1 86.8-49.4 86.8h-6.2c-33.6 0-46.8-35.5-41.7-86.8l21-203.6c5.1-51.3 16.5-84.3 48.8-84.3zM666.2 84L644.5 294c-2.2 17.3.3 29.2 10.4 29.2s12.2-11.4 14.5-29.1L691.3 84c2.2-19.7-2-28.1-10.7-28.1s-12 8.9-14.1 28.1zm96.4 137l-15.7 152h-35.5L748.2 6h52.4c25.8 0 38.1 19.3 34 60.7l-9.1 88.3c-4.2 42-15.9 66-40.4 66zm5.4-53.7h9.7c10.7 0 12.3-8.8 14.6-27l6.1-59.8c1.3-13.8.7-25.1-10.6-25.1h-7.8zM876 374h-35.6l5.4-75.5h-26.2L793.5 374H756l67.7-367h51.6zm2.6-109.5h-21.4l13-157.7zM895 374h-35.6L897.8 6h53c25.8 0 38.1 19.3 34 60.7L974.5 155c-2.8 27.1-9.4 43.3-17.7 53.4 5.6 5.4 14 14.8 11.4 43.2L955 376.1a95 95 0 0 0 .3 28.8l-.3 2.5h-35.4c-1.4-6-2-15.4-.4-31.3l11.4-109.2c2.3-19.4.3-24.4-10.4-24.4h-10.9zm23.4-217.5h10c10.2 0 13-9 14.7-24.9l5.6-53.1c1.6-16-.4-23.9-10.8-23.9h-8.5z" fill="none" stroke="#fff" stroke-width="4"/></svg>
