<svg viewBox="895 0 895 384" xmlns="http://www.w3.org/2000/svg"><path d="M938.5 378c-30 0-45.2-26.7-40.4-72l7.8-75.5H941l-7.1 69c-1.6 16.7 1.6 25.1 10.3 25.1s11.4-9.8 13.6-32l1-9.4c3.6-31 .7-43.3-10.6-75l-9.7-27c-13-35.5-19.8-60.7-15.6-98.2l1.3-12.3c4.9-47.3 19.4-67 45.6-67h8.4c28.4 0 41.7 20.2 37.5 61.6l-6.2 59.6H975l5.1-49.8C981.8 60 980 53 971.8 53s-10.3 7.8-11.6 20.2l-1 9.3c-1.6 19.8 1 29.6 10.3 58.2l9.4 28.6c14.6 46.4 23.3 67.6 19.1 114l-1.3 12.8c-5.5 55.7-22.3 81.8-50.7 81.8zm96.7-4h-35.6l38.2-367h35.5l-15.2 147h23.9l15.2-147h35.6l-38.2 367h-35.5l16.8-161.2H1052zm158-370.4c34.6 0 47.5 33 42.3 84.4l-21 203.6c-5.2 50.3-17.1 86.8-49.4 86.8h-6.2c-33.6 0-46.8-35.5-41.7-86.8l21-203.6c5.2-51.3 16.5-84.3 48.8-84.3zM1174.8 85L1153 295c-2.2 17.3.3 29.2 10.4 29.2s12.2-11.4 14.5-29.1L1199.7 85c2.2-19.7-2-28.1-10.7-28.1s-12 8.9-14.2 28.1zm96 137l-15.6 152h-35.5l38.1-367h52.4c25.8 0 38.1 19.3 34 60.7l-9 88.3c-4.3 42-16 66-40.5 66zm5.5-53.7h9.6c10.7 0 12.3-8.8 14.6-27l6.1-59.8c1.3-13.8.7-25.1-10.6-25.1h-7.8zM1427.2 7l10.3 200.8L1458.2 7h32L1452 374h-29l-12-213-22.3 213h-32l38-367zm123.4-3.4c34.6 0 47.5 33 42.4 84.4l-21 203.6c-5.2 50.3-17.2 86.8-49.5 86.8h-6.1c-33.6 0-46.9-35.5-41.7-86.8l21-203.6c5.1-51.3 16.5-84.3 48.8-84.3zM1532.2 85l-21.8 210c-2.2 17.3.4 29.2 10.4 29.2s12.3-11.4 14.5-29.1L1557.1 85c2.2-19.7-2-28.1-10.7-28.1s-12 8.9-14.2 28.1zm173.2-78l-8.7 241.7 41-241.6h33.6L1705.1 374h-38.8l6.2-211-36.2 211h-38.5l6.5-367h35.5l-7.4 234.8L1672 7.1z" fill="#fff"/></svg>
